<?xml version="1.0"?>
<svg xmlns="http://www.w3.org/2000/svg" xmlns:xlink="http://www.w3.org/1999/xlink" xmlns:svgjs="http://svgjs.com/svgjs" version="1.1" width="512" height="512" x="0" y="0" viewBox="0 0 64 64" style="enable-background:new 0 0 512 512" xml:space="preserve" class=""><g><path xmlns="http://www.w3.org/2000/svg" d="m60 1h-44c-1.654 0-3 1.346-3 3v15h-7c-2.757 0-5 2.243-5 5v24c0 2.757 2.243 5 5 5h9.612l-1.333 4h-3.279c-1.654 0-3 1.346-3 3v3h30v-3c0-1.654-1.346-3-3-3h-3.279l-1.333-4h9.612c2.757 0 5-2.243 5-5v-1h15c1.654 0 3-1.346 3-3v-40c0-1.654-1.346-3-3-3zm-44 2h44c.551 0 1 .449 1 1v5h-46v-5c0-.551.449-1 1-1zm-10 18h34c1.654 0 3 1.346 3 3v19h-40v-19c0-1.654 1.346-3 3-3zm39 6h12v14h-12zm-9 33v1h-26v-1c0-.551.449-1 1-1h24c.551 0 1 .449 1 1zm-6.388-3h-13.224l1.333-4h10.558zm10.388-6h-34c-1.654 0-3-1.346-3-3v-3h40v3c0 1.654-1.346 3-3 3zm20-6h-15v-2h14v-18h-14v-1c0-2.757-2.243-5-5-5h-25v-8h46v33c0 .551-.449 1-1 1z" fill="#ffffff" data-original="#000000" style="" class=""/><path xmlns="http://www.w3.org/2000/svg" d="m18 47h2v2h-2z" fill="#ffffff" data-original="#000000" style="" class=""/><path xmlns="http://www.w3.org/2000/svg" d="m22 47h2v2h-2z" fill="#ffffff" data-original="#000000" style="" class=""/><path xmlns="http://www.w3.org/2000/svg" d="m26 47h2v2h-2z" fill="#ffffff" data-original="#000000" style="" class=""/><path xmlns="http://www.w3.org/2000/svg" d="m21 5h2v2h-2z" fill="#ffffff" data-original="#000000" style="" class=""/><path xmlns="http://www.w3.org/2000/svg" d="m25 5h2v2h-2z" fill="#ffffff" data-original="#000000" style="" class=""/><path xmlns="http://www.w3.org/2000/svg" d="m17 5h2v2h-2z" fill="#ffffff" data-original="#000000" style="" class=""/><path xmlns="http://www.w3.org/2000/svg" d="m17 13h2v2h-2z" fill="#ffffff" data-original="#000000" style="" class=""/><path xmlns="http://www.w3.org/2000/svg" d="m21 13h38v2h-38z" fill="#ffffff" data-original="#000000" style="" class=""/><path xmlns="http://www.w3.org/2000/svg" d="m47 17h12v2h-12z" fill="#ffffff" data-original="#000000" style="" class=""/><path xmlns="http://www.w3.org/2000/svg" d="m47 21h12v2h-12z" fill="#ffffff" data-original="#000000" style="" class=""/><path xmlns="http://www.w3.org/2000/svg" d="m8 41h20c1.654 0 3-1.346 3-3v-12c0-1.654-1.346-3-3-3h-20c-1.654 0-3 1.346-3 3v12c0 1.654 1.346 3 3 3zm-1-15c0-.551.449-1 1-1h20c.551 0 1 .449 1 1v12c0 .551-.449 1-1 1h-20c-.551 0-1-.449-1-1z" fill="#ffffff" data-original="#000000" style="" class=""/><path xmlns="http://www.w3.org/2000/svg" d="m11.675 31h12.649v2h-12.649z" transform="matrix(.316 -.949 .949 .316 -18.051 38.951)" fill="#ffffff" data-original="#000000" style="" class=""/><path xmlns="http://www.w3.org/2000/svg" d="m22.707 36.707 4.707-4.707-4.707-4.707-1.414 1.414 3.293 3.293-3.293 3.293z" fill="#ffffff" data-original="#000000" style="" class=""/><path xmlns="http://www.w3.org/2000/svg" d="m14.707 35.293-3.293-3.293 3.293-3.293-1.414-1.414-4.707 4.707 4.707 4.707z" fill="#ffffff" data-original="#000000" style="" class=""/><path xmlns="http://www.w3.org/2000/svg" d="m33 23h8v2h-8z" fill="#ffffff" data-original="#000000" style="" class=""/><path xmlns="http://www.w3.org/2000/svg" d="m33 27h8v2h-8z" fill="#ffffff" data-original="#000000" style="" class=""/><path xmlns="http://www.w3.org/2000/svg" d="m33 31h8v2h-8z" fill="#ffffff" data-original="#000000" style="" class=""/><path xmlns="http://www.w3.org/2000/svg" d="m33 35h8v2h-8z" fill="#ffffff" data-original="#000000" style="" class=""/><path xmlns="http://www.w3.org/2000/svg" d="m35 39h2v2h-2z" fill="#ffffff" data-original="#000000" style="" class=""/><path xmlns="http://www.w3.org/2000/svg" d="m39 39h2v2h-2z" fill="#ffffff" data-original="#000000" style="" class=""/></g></svg>
