<?xml version="1.0" encoding="UTF-8" standalone="no"?>
<svg
   xmlns:dc="http://purl.org/dc/elements/1.1/"
   xmlns:cc="http://creativecommons.org/ns#"
   xmlns:rdf="http://www.w3.org/1999/02/22-rdf-syntax-ns#"
   xmlns:svg="http://www.w3.org/2000/svg"
   xmlns="http://www.w3.org/2000/svg"
   xmlns:sodipodi="http://sodipodi.sourceforge.net/DTD/sodipodi-0.dtd"
   xmlns:inkscape="http://www.inkscape.org/namespaces/inkscape"
   fill="#000000"
   viewBox="0 0 50 50"
   width="100px"
   height="100px"
   version="1.1"
   id="svg4"
   sodipodi:docname="html-5.svg"
   inkscape:version="0.92.3 (2405546, 2018-03-11)">
  <metadata
     id="metadata10">
    <rdf:RDF>
      <cc:Work
         rdf:about="">
        <dc:format>image/svg+xml</dc:format>
        <dc:type
           rdf:resource="http://purl.org/dc/dcmitype/StillImage" />
        <dc:title></dc:title>
      </cc:Work>
    </rdf:RDF>
  </metadata>
  <defs
     id="defs8" />
  <sodipodi:namedview
     pagecolor="#ffffff"
     bordercolor="#666666"
     borderopacity="1"
     objecttolerance="10"
     gridtolerance="10"
     guidetolerance="10"
     inkscape:pageopacity="0"
     inkscape:pageshadow="2"
     inkscape:window-width="640"
     inkscape:window-height="480"
     id="namedview6"
     showgrid="false"
     inkscape:zoom="2.36"
     inkscape:cx="50"
     inkscape:cy="50"
     inkscape:window-x="0"
     inkscape:window-y="0"
     inkscape:window-maximized="0"
     inkscape:current-layer="svg4" />
  <path
     d="M 45.273438 2.324219 C 45.085938 2.117188 44.816406 2 44.535156 2 L 5.464844 2 C 5.183594 2 4.914063 2.117188 4.726563 2.324219 C 4.535156 2.53125 4.441406 2.808594 4.46875 3.089844 L 7.988281 42.515625 C 8.023438 42.929688 8.3125 43.273438 8.710938 43.390625 L 24.722656 47.960938 C 24.808594 47.988281 24.902344 48 24.996094 48 C 25.089844 48 25.179688 47.988281 25.269531 47.960938 L 41.292969 43.390625 C 41.691406 43.273438 41.976563 42.929688 42.015625 42.515625 L 45.53125 3.089844 C 45.558594 2.808594 45.464844 2.53125 45.273438 2.324219 Z M 36.847656 15.917969 L 18.035156 15.917969 L 18.484375 21.007813 L 36.394531 21.007813 L 35.050781 36.050781 L 24.992188 39.089844 L 24.894531 39.058594 L 14.953125 36.046875 L 14.410156 29.917969 L 19.28125 29.917969 L 19.492188 32.296875 L 25.050781 33.460938 L 30.507813 32.296875 L 31.089844 25.859375 L 14.046875 25.859375 L 12.722656 11.054688 L 37.28125 11.054688 Z"
     id="path2"
     style="fill:#ffffff" />
</svg>
